<?xml version="1.0" encoding="UTF-8" standalone="no"?>
<svg width="60px" height="37px" viewBox="0 0 60 37" version="1.1" xmlns="http://www.w3.org/2000/svg" xmlns:xlink="http://www.w3.org/1999/xlink">
    <!-- Generator: Sketch 3.8.3 (29802) - http://www.bohemiancoding.com/sketch -->
    <title>Fill 1732</title>
    <desc>Created with Sketch.</desc>
    <defs></defs>
    <g id="Page-1" stroke="none" stroke-width="1" fill="none" fill-rule="evenodd">
        <g id="choose-account-type-" transform="translate(-42.000000, -43.000000)" fill="#FFFFFF">
            <g id="Fill-1732" transform="translate(42.000000, 43.000000)">
                <path d="M7.26890287,20.7949798 L58.016584,20.7949798 C59.1114296,20.7949798 60,19.9083929 60,18.8115639 C60,17.7147348 59.1114296,16.8281479 58.016584,16.8281479 L7.26890287,16.8281479 L19.7505396,4.34651114 C20.5260553,3.5709955 20.5260553,2.3174766 19.7505396,1.54196095 C18.975024,0.766445307 17.7215051,0.766445307 16.9459894,1.54196095 L1.08064503,17.4073053 C0.896187341,17.5897796 0.751397975,17.8099388 0.65024376,18.053899 C0.449918747,18.5378524 0.449918747,19.0852753 0.65024376,19.5692288 C0.751397975,19.8131889 0.896187341,20.0333481 1.08064503,20.2158224 L16.9459894,36.0811668 C17.3327555,36.4679329 17.84051,36.6623076 18.3482645,36.6623076 C18.856019,36.6623076 19.3637735,36.4679329 19.7505396,36.0811668 C20.5260553,35.3056511 20.5260553,34.0521322 19.7505396,33.2766166 L7.26890287,20.7949798 Z"></path>
            </g>
        </g>
    </g>
</svg>