<?xml version="1.0" encoding="UTF-8" standalone="no"?>
<svg width="19px" height="30px" viewBox="0 0 19 30" version="1.1" xmlns="http://www.w3.org/2000/svg" xmlns:xlink="http://www.w3.org/1999/xlink">
    <!-- Generator: Sketch 3.8.3 (29802) - http://www.bohemiancoding.com/sketch -->
    <title>Group 2</title>
    <desc>Created with Sketch.</desc>
    <defs></defs>
    <g id="Symbols" stroke="none" stroke-width="1" fill="none" fill-rule="evenodd">
        <g id="icon" transform="translate(-14.000000, -7.000000)" fill="#6FC5C6">
            <g id="Group-2" transform="translate(14.000000, 7.000000)">
                <g id="noun_340112_cc">
                    <g id="Group">
                        <path d="M13.8164198,6.71388078 L13.8164198,0.619800067 C13.8164198,0.277410514 13.5349362,1.77635684e-15 13.188101,1.77635684e-15 L5.65204327,1.77635684e-15 C5.30520799,1.77635684e-15 5.02372446,0.277410514 5.02372446,0.619800067 L5.02372446,6.71388078 C1.11863356,7.73459803 0,9.91912591 0,9.91912591 L0,29.7583077 L8.78351074,29.7583077 L10.0401484,29.7583077 L18.8401442,29.7583077 L18.8401442,9.91912591 C18.8401442,9.91912591 17.7215107,7.73459803 13.8164198,6.71388078 L13.8164198,6.71388078 Z M6.28036208,1.2400651 L12.5597822,1.2400651 L12.5597822,6.44594395 C11.6426204,6.29157514 10.6003483,6.19939557 9.42007212,6.19939557 C8.98215651,6.19939557 8.56455294,6.21258899 8.1643765,6.23618603 L8.1643765,2.47966524 C8.1643765,2.13727568 7.88289297,1.85986517 7.53605769,1.85986517 C7.18922241,1.85986517 6.90773888,2.13727568 6.90773888,2.47966524 L6.90773888,6.35329942 C6.69249023,6.38102303 6.482717,6.41188517 6.28036208,6.44594395 L6.28036208,1.2400651 L6.28036208,1.2400651 Z M5.66311185,22.9381821 L5.66311185,14.2591213 L13.1605473,14.2591213 L13.1605473,22.9381821 L5.66311185,22.9381821 L5.66311185,22.9381821 Z M1.25569561,28.5177776 L1.25569561,10.2869142 C1.46729398,10.0099106 1.927229,9.49868014 2.74506789,8.99099507 C3.46264188,8.54602233 4.31080163,8.19003251 5.26658569,7.93348736 C6.31527522,7.6514853 7.49649339,7.48938643 8.78345187,7.44945745 L8.78345187,13.0190562 L4.40735737,13.0190562 L4.40735737,24.1787122 L8.78345187,24.1787122 L8.78345187,28.5177776 L1.25569561,28.5177776 L1.25569561,28.5177776 Z M17.5844486,28.5177776 L10.0400895,28.5177776 L10.0400895,24.1787122 L14.416184,24.1787122 L14.416184,13.0190562 L10.0400895,13.0190562 L10.0400895,7.44899248 C11.3335243,7.48804965 12.5202178,7.65014853 13.5735585,7.93348736 C14.5293426,8.19003251 15.3775612,8.54602233 16.0950763,8.99058822 C16.9129152,9.49868014 17.3728502,10.0099687 17.5844486,10.2869724 L17.5844486,28.5177776 L17.5844486,28.5177776 Z" id="Shape"></path>
                    </g>
                </g>
            </g>
        </g>
    </g>
</svg>