<?xml version="1.0" encoding="UTF-8" standalone="no"?>
<svg width="77px" height="65px" viewBox="0 0 77 65" version="1.1" xmlns="http://www.w3.org/2000/svg" xmlns:xlink="http://www.w3.org/1999/xlink">
    <!-- Generator: Sketch 3.8.3 (29802) - http://www.bohemiancoding.com/sketch -->
    <title>Fill 1 + Fill 2 + Fill 3</title>
    <desc>Created with Sketch.</desc>
    <defs></defs>
    <g id="Page-1" stroke="none" stroke-width="1" fill="none" fill-rule="evenodd">
        <g id="stylist---basic-info" transform="translate(-336.000000, -217.000000)" fill="#393939">
            <g id="empty-avatar" transform="translate(300.000000, 178.000000)">
                <g id="Imported-Layers" transform="translate(36.000000, 39.000000)">
                    <g id="Fill-1-+-Fill-2-+-Fill-3">
                        <path d="M38.7619435,18.6787651 C33.6479844,18.6787651 29.2394667,20.5340462 25.6680466,24.1832932 C22.0327634,27.7870482 20.1885941,32.224493 20.1885941,37.3739859 C20.1885941,42.4888655 22.0327634,46.908509 25.6621515,50.5073193 C29.2414317,54.1090964 33.6450368,55.9633886 38.7511359,56.0177811 L38.7619435,56.0177811 L38.7727511,56.0177811 C43.8454449,55.9643775 48.2313649,54.1100853 51.8096625,50.5073193 C55.3899252,46.9055422 57.2321295,42.4908434 57.2851849,37.3640964 C57.231147,32.2225151 55.3889427,27.7890261 51.8145751,24.1941717 C48.2343124,20.5340462 43.8424973,18.6787651 38.7619435,18.6787651 L38.7619435,18.6787651 Z M50.4203948,49.1089357 C47.2203632,52.3299649 43.2981874,53.9894327 38.7619435,54.0398695 C34.1913118,53.9894327 30.2514509,52.3299649 27.0465067,49.103002 C23.7541191,45.8394478 22.153612,42.0032882 22.153612,37.3739859 C22.153612,32.7743524 23.8002971,28.8106175 27.0573143,25.5816767 C30.2553809,22.3141667 34.1942594,20.6566767 38.7619435,20.6566767 C43.3600854,20.6566767 47.1722202,22.2676857 50.4203948,25.5876104 C53.6233741,28.8096285 55.2720241,32.7792972 55.320167,37.3640964 C55.2720241,41.9340612 53.6233741,45.8849398 50.4203948,49.1089357 L50.4203948,49.1089357 Z" id="Fill-1"></path>
                        <path d="M67.2330882,9.84244478 L56.7153297,9.84244478 C56.6082363,7.18907631 55.5766019,4.89173193 53.6479368,3.01073795 C51.6750588,1.0239257 49.2718419,0.0171686747 46.5060791,0.0171686747 L30.5943465,0.0171686747 C27.8796743,0.0171686747 25.4420695,1.0239257 23.3355703,3.02557229 C21.4638908,4.9639257 20.4872768,7.24841365 20.4273438,9.84244478 L10.748648,9.84244478 C7.42482022,9.84244478 4.86243685,10.7305271 3.13518609,12.4839458 C1.41186538,14.2334086 0.553152545,16.8066717 0.581645305,20.1275853 L0.581645305,54.1971135 C0.553152545,57.5279167 1.41186538,60.1031576 3.13518609,61.8526205 C4.86243685,63.6060392 7.42383771,64.4951104 10.748648,64.4951104 L67.2881087,64.4941215 C73.5712535,64.257761 76.8921338,60.7014759 76.8921338,54.2099699 L76.8921338,20.1275853 C76.8921338,13.5777309 73.5574984,10.0214458 67.2330882,9.84244478 L67.2330882,9.84244478 Z M55.2504089,12.8093122 L67.1918228,12.8083233 C71.7988073,12.9388655 73.9446069,15.2648896 73.9446069,20.1275853 L73.9446069,54.2099699 C73.9446069,59.0954116 71.8685654,61.3522088 67.2330882,61.528243 L10.748648,61.528243 C8.23932014,61.528243 6.3813957,60.9348695 5.22793018,59.7639458 C4.0793772,58.5969779 3.50755699,56.7298293 3.52917219,54.2099699 L3.52917219,20.1147289 C3.50755699,17.604759 4.0793772,15.7405773 5.22891269,14.5736094 C6.38237821,13.4026857 8.23932014,12.8093122 10.748648,12.8093122 L21.9001247,12.8093122 C22.7136422,12.8093122 23.3738882,12.143745 23.3738882,11.3258785 L23.3738882,10.2716516 C23.3326228,8.30560743 24.0203791,6.57394578 25.4027692,5.13897088 C26.9305706,3.68916165 28.6293286,2.98403614 30.5943465,2.98403614 L46.5060791,2.98403614 C48.4897647,2.98403614 50.1482399,3.68223896 51.5807379,5.1251255 C53.0584314,6.56702309 53.7766454,8.26110442 53.7766454,10.3032982 L53.7766454,11.3258785 C53.7766454,12.143745 54.437874,12.8093122 55.2504089,12.8093122 L55.2504089,12.8093122 Z" id="Fill-2"></path>
                        <path d="M38.7363983,26.1503263 C35.8674721,26.1503263 33.3689518,27.1155472 31.2811203,29.0489558 L30.8733791,29.4583835 C28.7256145,31.620241 27.6369946,34.283499 27.6369946,37.3739859 C27.6369946,40.4733735 28.6951567,43.0456476 30.8733791,45.2371737 C32.9985459,47.3762851 35.637565,48.4898494 38.7187131,48.5462199 L38.7363983,48.5462199 L38.7560485,48.5462199 C41.6131845,48.4898494 44.1018797,47.5266064 46.1867637,45.6515462 L46.5994175,45.2371737 C48.7776399,43.0466365 49.835802,40.4743624 49.835802,37.3739859 C49.835802,34.28251 48.7471821,31.619252 46.5994175,29.4583835 C44.4182476,27.2629016 41.7733335,26.1503263 38.7363983,26.1503263 L38.7363983,26.1503263 Z M45.2081848,43.8397791 L44.8426915,44.2096486 C43.1576886,45.72374 41.1032624,46.5168825 38.7363983,46.5683082 C36.1533822,46.5168825 34.0360754,45.6238554 32.2626467,43.8387902 C30.4725154,42.0369127 29.6020125,39.9225251 29.6020125,37.3739859 C29.6020125,34.7908333 30.4725154,32.6586446 32.2577342,30.8607229 L32.6399302,30.477008 C34.3239505,28.9184137 36.3754292,28.128238 38.7363983,28.128238 C41.2683239,28.128238 43.3856307,29.0212651 45.2101498,30.8567671 C47.0012637,32.6586446 47.8717666,34.7898444 47.8717666,37.3739859 C47.8717666,39.9225251 47.0012637,42.0369127 45.2081848,43.8397791 L45.2081848,43.8397791 Z" id="Fill-3"></path>
                    </g>
                </g>
            </g>
        </g>
    </g>
</svg>