<?xml version="1.0" encoding="UTF-8" standalone="no"?>
<svg width="52px" height="40px" viewBox="0 0 52 40" version="1.1" xmlns="http://www.w3.org/2000/svg" xmlns:xlink="http://www.w3.org/1999/xlink">
    <!-- Generator: Sketch 3.8.3 (29802) - http://www.bohemiancoding.com/sketch -->
    <title>Combined Shape</title>
    <desc>Created with Sketch.</desc>
    <defs></defs>
    <g id="Page-1" stroke="none" stroke-width="1" fill="none" fill-rule="evenodd">
        <g id="sign-in-" transform="translate(-219.000000, -847.000000)" fill="#FFFFFF">
            <g id="LOGO" transform="translate(68.000000, 321.000000)">
                <g id="Group" transform="translate(151.000000, 526.000000)">
                    <path d="M51.998,34 C51.631,34 51.259,33.899 50.926,33.688 L29.342,19.952 L27.22,21.585 C26.86,21.861 26.43,22 26,22 C25.57,22 25.14,21.861 24.781,21.585 L22.658,19.952 L1.074,33.688 C0.741,33.899 0.369,34 0.002,34 L0,34 L0,38 C0,39.104 0.896,40 2,40 L50,40 C51.104,40 52,39.104 52,38 L52,34 L51.998,34 Z M0,2.523 L0,29.629 L19.285,17.357 L0,2.523 Z M48.719,0 L3.28,0 L26,17.477 L48.719,0 Z M52,2.523 L32.716,17.357 L52,29.629 L52,2.523 Z" id="Combined-Shape"></path>
                </g>
            </g>
        </g>
    </g>
</svg>