<?xml version="1.0" encoding="UTF-8" standalone="no"?>
<svg width="53px" height="53px" viewBox="0 0 53 53" version="1.1" xmlns="http://www.w3.org/2000/svg" xmlns:xlink="http://www.w3.org/1999/xlink">
    <!-- Generator: Sketch 39.1 (31720) - http://www.bohemiancoding.com/sketch -->
    <title>Fill 1392</title>
    <desc>Created with Sketch.</desc>
    <defs></defs>
    <g id="Page-1" stroke="none" stroke-width="1" fill="none" fill-rule="evenodd">
        <g id="landing---scrolld" transform="translate(-200.000000, -1253.000000)" fill="#3C3C3C">
            <g id="Group" transform="translate(0.000000, 1215.000000)">
                <g id="Fill-1392" transform="translate(200.000000, 38.000000)">
                    <path d="M2,21 C2,10.523 10.523,2 21,2 C31.477,2 40,10.523 40,21 C40,31.477 31.477,40 21,40 C10.523,40 2,31.477 2,21 M36.516,35.102 C39.91,31.37 42,26.431 42,21 C42,9.42 32.58,0 21,0 C9.42,0 0,9.42 0,21 C0,32.58 9.42,42 21,42 C26.43,42 31.37,39.911 35.102,36.516 L50.5181594,52.4257164 C50.7131594,52.6207164 50.9691594,52.7187164 51.2251594,52.7187164 C51.4811594,52.7187164 51.7371594,52.6207164 51.9321594,52.4257164 C52.3231594,52.0347164 52.3231594,51.4027164 51.9321594,51.0117164 L36.516,35.102 Z"></path>
                </g>
            </g>
        </g>
    </g>
</svg>