<?xml version="1.0" encoding="UTF-8" standalone="no"?>
<svg width="35px" height="35px" viewBox="0 0 35 35" version="1.1" xmlns="http://www.w3.org/2000/svg" xmlns:xlink="http://www.w3.org/1999/xlink">
    <!-- Generator: Sketch 39.1 (31720) - http://www.bohemiancoding.com/sketch -->
    <title>Fill 2962</title>
    <desc>Created with Sketch.</desc>
    <defs></defs>
    <g id="Page-1" stroke="none" stroke-width="1" fill="none" fill-rule="evenodd">
        <g id="stylist---about-copy" transform="translate(-447.000000, -869.000000)" fill="#56E6A5">
            <g id="Fill-2962-Copy" transform="translate(447.000000, 868.598481)">
                <path d="M32.5985695,3.25756898 C32.9483661,3.60746819 33.3863476,3.82449609 33.847717,3.90083022 L33.4746679,4.61835412 L5.21802046,19.4127664 L3.81707423,19.4127664 C3.9462965,19.0164884 3.96855432,18.5817282 3.86412981,18.1520228 C3.75911393,17.7266853 3.53808308,17.3531971 3.23927782,17.0624633 L4.48016911,16.4127664 L16.5148104,16.4127664 L19.5148104,16.4127664 L19.5148104,19.4127664 L19.5148104,31.4687845 L18.8539269,32.7399297 C18.5565478,32.4409361 18.1711096,32.2172854 17.7232403,32.1061579 C17.5676506,32.0705825 17.400905,32.0505869 17.2231309,32.0505869 C16.9788908,32.0505869 16.7402941,32.089368 16.5148104,32.1626163 L16.5148104,30.7355089 L31.247851,2.39793588 L31.9632268,2.02338457 C32.0402298,2.4797872 32.2554408,2.91323432 32.5985695,3.25756898 Z M34.8511055,1.97091002 L17.8514113,34.6681711 C17.7267469,34.9070033 17.4823763,35.0505869 17.2231309,35.0505869 C17.1671736,35.0505869 17.110508,35.0434788 17.0545506,35.0306842 C16.737223,34.9517843 16.5148104,34.6667495 16.5148104,34.3397769 L16.5148104,19.4127664 L1.64007797,19.4127664 C1.31354217,19.4127664 1.03021394,19.189572 0.951590353,18.8711291 C0.874383409,18.5533971 1.02313073,18.2228704 1.31212553,18.0714679 L33.8948727,1.0120273 C34.1689927,0.868443677 34.5040284,0.920332808 34.7236078,1.13997311 C34.9424788,1.3596134 34.9941862,1.69582654 34.8511055,1.97091002 Z" id="Fill-2962"></path>
            </g>
        </g>
    </g>
</svg>