<?xml version="1.0" encoding="UTF-8" standalone="no"?>
<svg width="24px" height="25px" viewBox="0 0 24 25" version="1.1" xmlns="http://www.w3.org/2000/svg" xmlns:xlink="http://www.w3.org/1999/xlink">
    <!-- Generator: Sketch 3.8.3 (29802) - http://www.bohemiancoding.com/sketch -->
    <title>Shape</title>
    <desc>Created with Sketch.</desc>
    <defs></defs>
    <g id="Symbols" stroke="none" stroke-width="1" fill="none" fill-rule="evenodd">
        <g id="salon_icon" transform="translate(-11.000000, -11.000000)" fill="#D284FF">
            <g id="Group-2">
                <path d="M34.9992497,13.5001084 C34.9992497,12.1194851 33.8801397,11 32.4994695,11 L13.5004836,11 C12.1191569,11 11,12.1191569 11,13.4997802 L11,13.5001553 L11,34.5045455 L11,34.5045455 C11,34.7799387 11.2233906,35.0040327 11.4994871,35.0040327 L11.4994871,35.0040327 L31.3364223,35.0040327 C31.3906288,35.0069399 31.4448352,35.0084405 31.4990417,35.0084405 C33.4326083,35.0084405 35,33.4410487 35,31.5074821 L35,13.5002022 L34.9992497,13.5002022 L34.9992497,13.5001084 Z M31.4990417,34.0079188 L11.999068,34.003511 L11.999068,32.5042056 C12.4172455,32.8184248 12.9365677,33.004443 13.4990768,33.004443 L31.4990885,33.004443 C32.3281753,33.004443 32.9990504,32.3320673 32.9990504,31.5044811 C32.9990504,30.6753474 32.3281284,30.0044723 31.4990885,30.0044723 L13.4990299,30.0044723 C13.2236368,30.0044723 12.9950881,30.2279098 12.9950881,30.5040063 C12.9950881,30.7801028 13.2236368,31.0034934 13.4990299,31.0034934 L31.4990417,31.0034934 C31.7751851,31.0034934 32.0000293,31.2283376 32.0000293,31.5044811 C32.0000293,31.7798742 31.7751851,32.0039682 31.4990417,32.0039682 L13.4990299,32.0039682 L13.4953724,32.0039682 C12.6698963,32.0017643 11.9997714,31.3301389 11.9990211,30.5046628 L11.9990211,30.5039594 L11.9990211,30.5039594 C11.9990211,29.6770297 12.6728505,29.0039506 13.4990299,29.0039506 L15.4999795,29.0039506 L31.4989948,29.0039506 L31.5034026,29.0039506 L31.5034026,29.0083584 C32.8803214,29.009812 33.9994783,30.1304226 33.9994783,31.5073883 C33.9995252,32.886558 32.8774142,34.0079188 31.4990417,34.0079188 L31.4990417,34.0079188 Z M33.9995252,29.0589542 C33.3637717,28.4107745 32.478978,28.0079305 31.4990417,28.0079305 L31.4990417,28.0035227 L13.4990299,28.0035227 C12.9365208,28.0035227 12.4172455,28.1902442 11.9990211,28.5045104 L11.9990211,13.9051094 L11.9997714,13.9047343 L12.0005217,13.4997333 C12.0005217,12.6728036 12.6728505,12.0000996 13.5005305,12.0000996 L32.4995164,12.0000996 C33.3264462,12.0000996 33.9995252,12.6728036 33.9995252,13.5001084 L33.9995252,13.8505747 L33.9995252,29.0589542 L33.9995252,29.0589542 Z" id="Shape"></path>
            </g>
        </g>
    </g>
</svg>