<?xml version="1.0" encoding="UTF-8" standalone="no"?>
<svg width="48px" height="48px" viewBox="0 0 48 48" version="1.1" xmlns="http://www.w3.org/2000/svg" xmlns:xlink="http://www.w3.org/1999/xlink">
    <!-- Generator: Sketch 39.1 (31720) - http://www.bohemiancoding.com/sketch -->
    <title>Fill 2397 + Fill 2398</title>
    <desc>Created with Sketch.</desc>
    <defs></defs>
    <g id="Page-1" stroke="none" stroke-width="1" fill="none" fill-rule="evenodd" opacity="0.574626866">
        <g id="salon---no-info-added" transform="translate(-674.000000, -57.000000)" fill="#FFFFFF">
            <g id="Fill-2397-+-Fill-2398" transform="translate(674.000000, 57.000000)">
                <path d="M46,26 L40.508,26 C40.046,26 39.644,26.316 39.536,26.765 C39.266,27.881 38.548,30.845 37.646,32.32 C37.406,32.715 37.466,33.223 37.793,33.549 L41.678,37.435 L37.435,41.678 L33.548,37.793 C33.222,37.467 32.714,37.405 32.319,37.646 C30.844,38.548 27.88,39.266 26.765,39.536 C26.316,39.644 26,40.046 26,40.508 L26,46 L22,46 L22,40.508 C22,40.046 21.684,39.644 21.235,39.536 C20.12,39.266 17.155,38.548 15.678,37.644 C15.285,37.405 14.776,37.464 14.449,37.791 L10.564,41.678 L6.321,37.435 L10.207,33.549 C10.534,33.223 10.594,32.715 10.353,32.32 C9.453,30.847 8.734,27.881 8.463,26.765 C8.354,26.315 7.953,26 7.491,26 L2,26 L2,22 L7.491,22 C7.953,22 8.354,21.685 8.463,21.235 C8.734,20.119 9.453,17.153 10.353,15.68 C10.594,15.285 10.534,14.777 10.207,14.451 L6.321,10.565 L10.564,6.322 L14.451,10.207 C14.778,10.535 15.286,10.597 15.68,10.354 C17.163,9.447 20.121,8.734 21.234,8.467 C21.684,8.358 22,7.956 22,7.494 L22,2 L26,2 L26,7.494 C26,7.956 26.316,8.358 26.766,8.467 C28.512,8.887 30.987,9.54 32.32,10.354 C32.715,10.593 33.221,10.532 33.548,10.207 L37.434,6.322 L41.677,10.565 L37.793,14.449 C37.466,14.775 37.406,15.283 37.646,15.677 C38.552,17.162 39.265,20.121 39.534,21.234 C39.642,21.684 40.044,22 40.506,22 L46,22 L46,26 Z M47,20 L41.29,20 C40.891,18.42 40.381,16.666 39.734,15.337 L43.799,11.271 C43.986,11.084 44.092,10.83 44.092,10.565 C44.092,10.299 43.986,10.045 43.799,9.857 L38.141,4.201 C37.75,3.81 37.117,3.81 36.727,4.201 L32.661,8.266 C31.331,7.618 29.578,7.109 28,6.711 L28,1 C28,0.447 27.552,0 27,0 L21,0 C20.448,0 20,0.447 20,1 L20,6.711 C18.42,7.109 16.667,7.618 15.338,8.266 L11.271,4.201 C10.881,3.81 10.248,3.81 9.857,4.201 L4.2,9.857 C3.81,10.248 3.81,10.881 4.2,11.271 L8.266,15.338 C7.621,16.663 7.11,18.418 6.708,20 L1,20 C0.448,20 0,20.447 0,21 L0,27 C0,27.553 0.448,28 1,28 L6.708,28 C7.11,29.582 7.621,31.337 8.266,32.662 L4.199,36.729 C4.012,36.916 3.906,37.17 3.906,37.435 C3.906,37.701 4.012,37.955 4.199,38.143 L9.857,43.799 C10.233,44.175 10.897,44.174 11.271,43.799 L15.336,39.732 C16.663,40.379 18.418,40.89 20,41.291 L20,47 C20,47.553 20.448,48 21,48 L27,48 C27.552,48 28,47.553 28,47 L28,41.291 C29.581,40.89 31.336,40.379 32.661,39.734 L36.728,43.799 C37.119,44.19 37.752,44.19 38.143,43.799 L43.799,38.143 C44.19,37.752 44.19,37.119 43.799,36.729 L39.734,32.662 C40.379,31.337 40.89,29.581 41.291,28 L47,28 C47.552,28 48,27.553 48,27 L48,21 C48,20.447 47.552,20 47,20 L47,20 Z" id="Fill-2397"></path>
                <path d="M24,32 C19.589,32 16,28.411 16,24 C16,19.589 19.589,16 24,16 C28.411,16 32,19.589 32,24 C32,28.411 28.411,32 24,32 M24,14 C18.486,14 14,18.486 14,24 C14,29.514 18.486,34 24,34 C29.514,34 34,29.514 34,24 C34,18.486 29.514,14 24,14" id="Fill-2398"></path>
            </g>
        </g>
    </g>
</svg>