<?xml version="1.0" encoding="UTF-8" standalone="no"?>
<svg width="64px" height="58px" viewBox="0 0 64 58" version="1.1" xmlns="http://www.w3.org/2000/svg" xmlns:xlink="http://www.w3.org/1999/xlink">
    <!-- Generator: Sketch 39.1 (31720) - http://www.bohemiancoding.com/sketch -->
    <title>Fill 1442</title>
    <desc>Created with Sketch.</desc>
    <defs></defs>
    <g id="Page-1" stroke="none" stroke-width="1" fill="none" fill-rule="evenodd">
        <g id="landing---scrolld" transform="translate(-494.000000, -1251.000000)" fill="#BDBCBC">
            <g id="Group" transform="translate(0.000000, 1215.000000)">
                <g id="Fill-1442" transform="translate(496.000000, 38.000000)">
                    <path d="M39.2746047,16.4165701 L39.999936,16.9226576 L30.8765753,0.361379315 L30.0007528,-1.22846672 L29.1248292,0.361323577 L20.0000947,16.9226019 L20.7253953,16.4165701 L0.674883363,19.4701238 L-1.42779235,19.7903467 L0.160168711,21.2053264 L15.4504871,34.8300245 L15.1418637,33.8564251 L10.5465254,53.5719087 L10.0656457,55.6350378 L11.9641256,54.6950798 L30.4388967,45.5480203 L29.5460228,45.5452942 L47.7405401,54.6923537 L49.6152499,55.63484 L49.1665807,53.5850807 L44.85287,33.877758 L44.5412923,34.8381657 L59.8398535,21.2053066 L61.4277112,19.7903343 L59.3251166,19.4701238 L39.2746047,16.4165701 Z M58.5092656,19.7121436 L43.2107044,33.3450027 L42.774072,33.7340946 L42.8991266,34.3054104 L47.2128373,54.0127331 L48.6388779,52.90546 L30.4443606,43.7584005 L29.9986038,43.534302 L29.5514868,43.7556744 L11.0767157,52.9027339 L12.4943158,54.025905 L17.0896541,34.3104214 L17.2244819,33.7319667 L16.7810307,33.336822 L1.49071224,19.7121238 L0.975997589,21.4473264 L21.0265095,18.3937727 L21.5138989,18.3195467 L21.75181,17.887741 L30.8765446,1.32646267 L29.1247985,1.32640693 L38.2481592,17.8876852 L38.486062,18.3195407 L38.9734905,18.3937727 L59.0240024,21.4473264 L58.5092656,19.7121436 Z"></path>
                </g>
            </g>
        </g>
    </g>
</svg>