<?xml version="1.0" encoding="UTF-8" standalone="no"?>
<svg width="46px" height="46px" viewBox="0 0 46 46" version="1.1" xmlns="http://www.w3.org/2000/svg" xmlns:xlink="http://www.w3.org/1999/xlink">
    <!-- Generator: Sketch 3.8.3 (29802) - http://www.bohemiancoding.com/sketch -->
    <title>icon_stylist</title>
    <desc>Created with Sketch.</desc>
    <defs></defs>
    <g id="Page-1" stroke="none" stroke-width="1" fill="none" fill-rule="evenodd">
        <g id="stylist---basic-info" transform="translate(-410.000000, -277.000000)">
            <g id="scissors" transform="translate(410.000000, 277.000000)">
                <g id="icon_stylist">
                    <g id="Group-4">
                        <circle id="Oval-172" fill="#FFFFFF" cx="23" cy="23" r="23"></circle>
                        <path d="M33.6869437,28.7463977 L33.5850187,28.7165103 C32.09625,28.316379 31.5926437,27.9320075 30.9299625,27.6796248 C28.5788812,26.7834522 27.9671625,26.1370732 27.8107312,25.8319512 C27.8046,25.8213696 27.8001562,25.8099437 27.7957687,25.7985178 L27.7904812,25.0870169 C28.1244937,24.7563415 28.4479312,24.3966229 28.7528625,24.0123077 L28.5630187,25.461651 L29.7469125,24.4608443 C31.205025,23.2278612 32.2113375,21.4830769 32.65695,19.4154409 C33.0559875,17.5655722 32.984775,15.4966417 32.4565875,13.5909381 C32.0083312,11.9736398 31.2568875,10.5406191 30.2848312,9.44654784 C29.216925,8.24570356 27.9064687,7.4902439 26.4958312,7.26206379 C25.4210625,7.08836773 24.41295,7 23.4988875,7 C20.8006875,7 19.4506875,7.7519137 18.8645062,8.23033771 L18.8073562,8.25499062 C18.7563937,8.27739212 17.5487625,8.81255159 16.3368,9.94658537 C14.70735,11.4715197 13.84515,13.3592683 13.84515,15.4052908 C13.84515,20.4031332 15.6099937,23.1891932 15.6855937,23.3053096 L16.7736375,24.9877298 L16.7894437,22.9843152 C16.7911875,22.6879174 16.8000187,22.4021013 16.8122812,22.1233771 C17.4011625,23.2455347 18.1702125,24.2568668 19.0095187,25.0879737 L19.0042312,25.7985741 C18.9998437,25.81 18.9954562,25.8214259 18.9892687,25.8320075 C18.8328375,26.1371295 18.2211187,26.7835084 15.8700375,27.6796811 C15.2073562,27.9320638 14.70375,28.316379 13.2148687,28.7165666 L13.1129437,28.746454 C11.7577125,29.1940901 10.8453937,30.4516698 10.8453937,31.8711257 L10.8453937,35.8180113 L23.4003937,35.8180113 L35.9544937,35.8180113 L35.9544937,31.8710694 C35.9544937,30.4516135 35.0422312,29.1940338 33.6869437,28.7463977 L33.6869437,28.7463977 Z M23.4988875,8.20084428 C24.3487688,8.20084428 25.2927563,8.2835272 26.3042438,8.44709193 C27.4398188,8.63091932 28.505925,9.2526454 29.3883188,10.244728 C30.2391,11.2024203 30.9009375,12.4705816 31.2999188,13.9119887 C31.7780438,15.6339212 31.8430688,17.498818 31.484475,19.1622139 C31.2163875,20.4057786 30.7207125,21.5112195 30.0290063,22.4249531 C30.0237188,22.0108068 30.0008813,21.536773 29.947275,21.0266604 C29.704725,18.7445216 28.94535,16.8176548 27.7500375,15.4544841 C26.2497375,13.7435272 24.085125,12.8759475 21.3157125,12.8759475 C20.860425,12.8759475 20.3849438,12.8996998 19.8936563,12.9472045 L19.6677563,9.12819887 C19.7996063,9.02705441 19.997325,8.89776735 20.279475,8.7684803 C20.8446188,8.5095122 21.8615063,8.20084428 23.4988875,8.20084428 L23.4988875,8.20084428 Z M15.0456938,15.4052345 C15.0456938,13.6876923 15.746175,12.1547655 17.1286313,10.8492871 C17.618175,10.3871295 18.1130063,10.0344465 18.5050125,9.78864916 L18.7142063,13.3209381 C18.0374625,13.9536961 16.288425,15.9799062 15.7488188,20.4048218 C15.38055,19.1939024 15.0456938,17.512833 15.0456938,15.4052345 L15.0456938,15.4052345 Z M18.2642062,15.9584053 C18.7783875,14.9752158 19.2934125,14.4242402 19.5377062,14.1956098 C20.1599437,14.1169231 20.7558562,14.076454 21.3157125,14.076454 C23.7221437,14.076454 25.5818812,14.8050657 26.84475,16.2420826 C28.2826125,17.8791932 28.7053875,20.1455159 28.8020812,21.7918574 C28.4382,22.4478612 27.9917437,23.0828705 27.4705312,23.6773546 C26.7823687,24.4627017 26.0098875,25.1196623 25.2390937,25.5778799 C24.5500312,25.9867917 23.897025,26.2119325 23.4003937,26.2119325 C22.902975,26.2119325 22.2499125,25.9867917 21.56085,25.5778799 C20.7900562,25.1196623 20.0184187,24.462758 19.3293562,23.6773546 C18.22635,22.4197186 17.4546562,20.9783677 17.0943187,19.5457411 C17.3905875,17.91606 17.85285,16.7455535 18.2642062,15.9584053 L18.2642062,15.9584053 Z M34.75395,34.6166604 L23.40045,34.6166604 L12.04515,34.6166604 L12.04515,31.8710694 C12.04515,30.9766417 12.6172687,30.1834146 13.4697937,29.8923077 L13.5374625,29.8729456 C14.658975,29.5704128 15.2785687,29.2740713 15.7768875,29.0357598 C15.969375,28.9433959 16.1354812,28.8634146 16.2972,28.8018386 C17.6401687,28.2899812 19.491075,27.4817824 20.0562187,26.3824765 C20.0782125,26.3393621 20.0940187,26.3033396 20.1027937,26.2830769 L20.184525,26.1001501 C21.29985,26.9268668 22.4467875,27.4122702 23.4003937,27.4122702 C24.3531562,27.4122702 25.5000937,26.9268105 26.6153062,26.1001501 L26.6970375,26.2830769 C26.7049687,26.302439 26.720775,26.3384615 26.7427125,26.3806754 C27.3069562,27.4808818 29.1588187,28.2890807 30.5035312,28.8018386 C30.66435,28.8634146 30.8304562,28.9434522 31.0229437,29.0357598 C31.5212625,29.2740713 32.1409125,29.5704128 33.2623687,29.8729456 L33.329925,29.8923077 C34.18245,30.1834146 34.753725,30.9766979 34.753725,31.8710694 L34.753725,34.6166604 L34.75395,34.6166604 Z" id="Shape" fill="#26C77E"></path>
                    </g>
                </g>
            </g>
        </g>
    </g>
</svg>