<?xml version="1.0" encoding="utf-8"?>
<!-- Generator: Adobe Illustrator 16.0.0, SVG Export Plug-In . SVG Version: 6.00 Build 0)  -->
<!DOCTYPE svg PUBLIC "-//W3C//DTD SVG 1.1//EN" "http://www.w3.org/Graphics/SVG/1.1/DTD/svg11.dtd">
<svg version="1.1" id="Layer_1" xmlns="http://www.w3.org/2000/svg" xmlns:xlink="http://www.w3.org/1999/xlink" x="0px" y="0px"
	 width="67px" height="62px" viewBox="0 0 67 62" enable-background="new 0 0 67 62" xml:space="preserve">
<title>House</title>
<desc>Created with Sketch.</desc>
<path id="Symbols" fill="none" d="M7,60.5v1h2v-1v-43v-1H7v1V60.5z M58,60.5v1h2v-1v-43v-1h-2v1V60.5z M40,32.5v1h2v-1v-15v-1h-2v1
	V32.5z M25,32.5v1h2v-1v-15v-1h-2v1V32.5z M40,60.5v1h2v-1v-15v-1h-2v1V60.5z M41,45h1v-2h-1H26h-1v2h1H41z M41,34h1v-2h-1H26h-1v2
	h1H41z M33.616,2.55l0.906-0.424l-0.85-1.811l-0.905,0.424L1.076,15.595L0.17,16.019l0.849,1.811l0.905-0.425L33.616,2.55z
	 M34.233,0.739l-0.905-0.424l-0.849,1.811l0.905,0.424l31.692,14.855l0.904,0.425l0.85-1.811l-0.906-0.424L34.233,0.739z M25,60.5v1
	h2v-1v-15v-1h-2v1V60.5z"/>
</svg>
