<?xml version="1.0" encoding="utf-8"?>
<!-- Generator: Adobe Illustrator 16.0.0, SVG Export Plug-In . SVG Version: 6.00 Build 0)  -->
<!DOCTYPE svg PUBLIC "-//W3C//DTD SVG 1.1//EN" "http://www.w3.org/Graphics/SVG/1.1/DTD/svg11.dtd">
<svg version="1.1" id="Layer_1" xmlns="http://www.w3.org/2000/svg" xmlns:xlink="http://www.w3.org/1999/xlink" x="0px" y="0px"
	 width="386px" height="175px" viewBox="0 0 386 175" enable-background="new 0 0 386 175" xml:space="preserve">
<title>Group 4</title>
<desc>Created with Sketch.</desc>
<path id="Page-1" fill="none" d="M15.127,137.762h24.472v5.688l14.076,1.024V96.266H39.599v27.881H15.127V96.266H1v44.375
	l14.127,1.028V137.762z M165.722,148.06l-0.05-2.663c0-7.635,0.722-12.76,2.165-15.372c1.442-2.612,3.208-3.918,5.297-3.918
	c1.028,0,2.338,0.402,3.93,1.205l4.228-11.805c-1.924-0.938-3.764-1.407-5.521-1.407c-2.487,0-4.776,0.703-6.864,2.109
	c-2.089,1.407-3.764,3.467-5.025,6.18v-6.882h-11.639v36.14l13.48,0.98V148.06z M356.029,171.57c4.275,0,8.24-0.875,11.927-2.537
	l-26.827-1.771C345.518,170.117,350.478,171.57,356.029,171.57z M136.425,110.785c2.354,0,4.376-0.863,6.068-2.588
	c1.691-1.726,2.536-3.81,2.536-6.255c0-2.479-0.853-4.589-2.561-6.33C140.76,93.871,138.712,93,136.324,93
	c-2.387,0-4.426,0.854-6.118,2.562c-1.69,1.708-2.537,3.768-2.537,6.18c0,2.512,0.854,4.646,2.562,6.404
	C131.939,109.904,134.003,110.785,136.425,110.785z M143.14,115.507H129.51v34.485l13.629,0.991V115.507z M304.647,170.164h13.628
	v-4.409l-13.628-0.899V170.164z M100.163,154.515c-2.818,2.998-6.367,4.497-10.644,4.497c-4.145,0-7.635-1.524-10.471-4.572
	c-1.284-1.38-2.262-2.941-2.964-4.665l-14.331-0.946c0.962,5.588,3.352,10.433,7.172,14.529c5.107,5.476,11.159,8.213,18.155,8.213
	c3.118,0,6.011-0.561,8.68-1.684c2.669-1.121,5.331-2.955,7.983-5.5v5.777h13.529v-17.672l-14.943-0.985
	C101.734,152.592,101.022,153.602,100.163,154.515z M311.561,110.785c2.354,0,4.378-0.863,6.069-2.588
	c1.69-1.726,2.536-3.81,2.536-6.255c0-2.479-0.854-4.589-2.562-6.33C315.897,93.871,313.85,93,311.462,93s-4.427,0.854-6.118,2.562
	s-2.537,3.768-2.537,6.18c0,2.512,0.854,4.646,2.562,6.404S309.141,110.785,311.561,110.785z M222.103,163.206
	c5.488,5.577,12.112,8.364,19.872,8.364c5.271,0,10.097-1.264,14.475-3.793c2.625-1.516,4.877-3.43,6.84-5.65l-44.498-2.936
	C219.758,160.589,220.85,161.934,222.103,163.206z M189.76,170.164h13.579v-11.992l-13.579-0.896V170.164z M280.274,170.164h13.579
	v-6.021l-13.579-0.896V170.164z M39.599,170.164h14.076v-21.867l-14.076-0.93V170.164z M1,170.164h14.127v-24.411L1,144.82V170.164z
	 M152.242,170.164h13.48v-14.475l-13.48-0.89V170.164z M129.51,170.164h13.629v-15.965l-13.629-0.9V170.164z M74.796,142.785
	c0-4.688,1.393-8.531,4.178-11.529s6.284-4.497,10.496-4.497c4.311,0,7.876,1.474,10.694,4.422
	c2.819,2.946,4.228,6.798,4.228,11.554c0,1.944-0.237,3.733-0.688,5.381l13.571,0.986v-33.595h-13.529v6.027
	c-2.42-2.478-5.057-4.337-7.909-5.575c-2.852-1.24-5.902-1.859-9.152-1.859c-7.063,0-13.065,2.696-18.006,8.088
	c-4.942,5.393-7.413,12.308-7.413,20.748c0,0.714,0.045,1.404,0.084,2.098l13.695,0.996
	C74.882,144.995,74.796,143.915,74.796,142.785z M231.554,154.39c-2.771-2.948-4.153-6.799-4.153-11.555
	c0-4.622,1.4-8.415,4.202-11.378c2.803-2.965,6.31-4.447,10.521-4.447c4.312,0,7.852,1.467,10.619,4.396
	c2.77,2.93,4.154,6.74,4.154,11.429s-1.41,8.524-4.229,11.505c-2.016,2.131-4.402,3.486-7.148,4.094l19.6,1.426
	c0.598-0.837,1.181-1.688,1.699-2.605c2.538-4.488,3.807-9.312,3.807-14.469c0-5.125-1.261-9.896-3.78-14.317
	c-2.521-4.422-6.026-7.921-10.521-10.499c-4.494-2.58-9.293-3.869-14.4-3.869c-7.062,0-13.312,2.479-18.752,7.435
	c-6.201,5.694-9.302,12.811-9.302,21.351c0,4.956,1.063,9.447,3.186,13.478l19.396,1.412
	C234.622,157.038,232.987,155.915,231.554,154.39z M293.854,94.407h-13.579v66.556l13.579,0.988V94.407z M203.339,127.161h8.605
	v-11.654h-8.605l0.05-6.833c0-1.574,0.265-2.612,0.796-3.113c0.729-0.672,1.89-1.006,3.481-1.006c1.261,0,2.868,0.284,4.824,0.854
	V94.96c-3.547-1.307-6.73-1.96-9.549-1.96c-3.913,0-6.939,0.879-9.078,2.638s-3.391,4.146-3.755,7.158
	c-0.199,1.307-0.315,5.544-0.348,12.711h-4.825v11.654h4.825v27.216l13.579,0.987V127.161z M380.874,157.254
	c2.537-4.488,3.806-9.312,3.806-14.469c0-5.125-1.26-9.896-3.78-14.317c-2.52-4.422-6.026-7.921-10.52-10.499
	c-4.494-2.58-9.293-3.869-14.4-3.869c-7.063,0-13.313,2.479-18.753,7.435c-6.201,5.694-9.301,12.811-9.301,21.351
	c0,7.972,2.744,14.745,8.232,20.321c0.693,0.704,1.404,1.363,2.134,1.979l32.548,2.368
	C375.05,165.041,378.406,161.619,380.874,157.254z M345.607,154.39c-2.769-2.948-4.152-6.799-4.152-11.555
	c0-4.622,1.401-8.415,4.203-11.378c2.803-2.965,6.309-4.447,10.521-4.447c4.311,0,7.851,1.467,10.619,4.396s4.153,6.74,4.153,11.429
	s-1.409,8.524-4.228,11.505c-2.819,2.98-6.351,4.471-10.595,4.471S348.378,157.338,345.607,154.39z M318.275,115.507h-13.628v47.229
	l13.628,0.992V115.507z M15.127,137.762h24.472v5.688l14.076,1.024V96.266H39.599v27.881H15.127V96.266H1v44.375l14.127,1.028
	V137.762z M165.722,148.06l-0.05-2.663c0-7.635,0.722-12.76,2.165-15.372c1.442-2.612,3.208-3.918,5.297-3.918
	c1.028,0,2.338,0.402,3.93,1.205l4.228-11.805c-1.924-0.938-3.764-1.407-5.521-1.407c-2.487,0-4.776,0.703-6.864,2.109
	c-2.089,1.407-3.764,3.467-5.025,6.18v-6.882h-11.639v36.14l13.48,0.98V148.06z M356.029,171.57c4.275,0,8.24-0.875,11.927-2.537
	l-26.827-1.771C345.518,170.117,350.478,171.57,356.029,171.57z M136.425,110.785c2.354,0,4.376-0.863,6.068-2.588
	c1.691-1.726,2.536-3.81,2.536-6.255c0-2.479-0.853-4.589-2.561-6.33C140.76,93.871,138.712,93,136.324,93
	c-2.387,0-4.426,0.854-6.118,2.562c-1.69,1.708-2.537,3.768-2.537,6.18c0,2.512,0.854,4.646,2.562,6.404
	C131.939,109.904,134.003,110.785,136.425,110.785z M143.14,115.507H129.51v34.485l13.629,0.991V115.507z M304.647,170.164h13.628
	v-4.409l-13.628-0.899V170.164z M100.163,154.515c-2.818,2.998-6.367,4.497-10.644,4.497c-4.145,0-7.635-1.524-10.471-4.572
	c-1.284-1.38-2.262-2.941-2.964-4.665l-14.331-0.946c0.962,5.588,3.352,10.433,7.172,14.529c5.107,5.476,11.159,8.213,18.155,8.213
	c3.118,0,6.011-0.561,8.68-1.684c2.669-1.121,5.331-2.955,7.983-5.5v5.777h13.529v-17.672l-14.943-0.985
	C101.734,152.592,101.022,153.602,100.163,154.515z M311.561,110.785c2.354,0,4.378-0.863,6.069-2.588
	c1.69-1.726,2.536-3.81,2.536-6.255c0-2.479-0.854-4.589-2.562-6.33C315.897,93.871,313.85,93,311.462,93s-4.427,0.854-6.118,2.562
	s-2.537,3.768-2.537,6.18c0,2.512,0.854,4.646,2.562,6.404S309.141,110.785,311.561,110.785z M222.103,163.206
	c5.488,5.577,12.112,8.364,19.872,8.364c5.271,0,10.097-1.264,14.475-3.793c2.625-1.516,4.877-3.43,6.84-5.65l-44.498-2.936
	C219.758,160.589,220.85,161.934,222.103,163.206z M189.76,170.164h13.579v-11.992l-13.579-0.896V170.164z M280.274,170.164h13.579
	v-6.021l-13.579-0.896V170.164z M39.599,170.164h14.076v-21.867l-14.076-0.93V170.164z M1,170.164h14.127v-24.411L1,144.82V170.164z
	 M152.242,170.164h13.48v-14.475l-13.48-0.89V170.164z M129.51,170.164h13.629v-15.965l-13.629-0.9V170.164z M74.796,142.785
	c0-4.688,1.393-8.531,4.178-11.529s6.284-4.497,10.496-4.497c4.311,0,7.876,1.474,10.694,4.422
	c2.819,2.946,4.228,6.798,4.228,11.554c0,1.944-0.237,3.733-0.688,5.381l13.571,0.986v-33.595h-13.529v6.027
	c-2.42-2.478-5.057-4.337-7.909-5.575c-2.852-1.24-5.902-1.859-9.152-1.859c-7.063,0-13.065,2.696-18.006,8.088
	c-4.942,5.393-7.413,12.308-7.413,20.748c0,0.714,0.045,1.404,0.084,2.098l13.695,0.996
	C74.882,144.995,74.796,143.915,74.796,142.785z M231.554,154.39c-2.771-2.948-4.153-6.799-4.153-11.555
	c0-4.622,1.4-8.415,4.202-11.378c2.803-2.965,6.31-4.447,10.521-4.447c4.312,0,7.852,1.467,10.619,4.396
	c2.77,2.93,4.154,6.74,4.154,11.429s-1.41,8.524-4.229,11.505c-2.016,2.131-4.402,3.486-7.148,4.094l19.6,1.426
	c0.598-0.837,1.181-1.688,1.699-2.605c2.538-4.488,3.807-9.312,3.807-14.469c0-5.125-1.261-9.896-3.78-14.317
	c-2.521-4.422-6.026-7.921-10.521-10.499c-4.494-2.58-9.293-3.869-14.4-3.869c-7.062,0-13.312,2.479-18.752,7.435
	c-6.201,5.694-9.302,12.811-9.302,21.351c0,4.956,1.063,9.447,3.186,13.478l19.396,1.412
	C234.622,157.038,232.987,155.915,231.554,154.39z M293.854,94.407h-13.579v66.556l13.579,0.988V94.407z M203.339,127.161h8.605
	v-11.654h-8.605l0.05-6.833c0-1.574,0.265-2.612,0.796-3.113c0.729-0.672,1.89-1.006,3.481-1.006c1.261,0,2.868,0.284,4.824,0.854
	V94.96c-3.547-1.307-6.73-1.96-9.549-1.96c-3.913,0-6.939,0.879-9.078,2.638s-3.391,4.146-3.755,7.158
	c-0.199,1.307-0.315,5.544-0.348,12.711h-4.825v11.654h4.825v27.216l13.579,0.987V127.161z M380.874,157.254
	c2.537-4.488,3.806-9.312,3.806-14.469c0-5.125-1.26-9.896-3.78-14.317c-2.52-4.422-6.026-7.921-10.52-10.499
	c-4.494-2.58-9.293-3.869-14.4-3.869c-7.063,0-13.313,2.479-18.753,7.435c-6.201,5.694-9.301,12.811-9.301,21.351
	c0,7.972,2.744,14.745,8.232,20.321c0.693,0.704,1.404,1.363,2.134,1.979l32.548,2.368
	C375.05,165.041,378.406,161.619,380.874,157.254z M345.607,154.39c-2.769-2.948-4.152-6.799-4.152-11.555
	c0-4.622,1.401-8.415,4.203-11.378c2.803-2.965,6.309-4.447,10.521-4.447c4.311,0,7.851,1.467,10.619,4.396s4.153,6.74,4.153,11.429
	s-1.409,8.524-4.228,11.505c-2.819,2.98-6.351,4.471-10.595,4.471S348.378,157.338,345.607,154.39z M318.275,115.507h-13.628v47.229
	l13.628,0.992V115.507z M15.127,137.762h24.472v5.688l14.076,1.024V96.266H39.599v27.881H15.127V96.266H1v44.375l14.127,1.028
	V137.762z M165.722,148.06l-0.05-2.663c0-7.635,0.722-12.76,2.165-15.372c1.442-2.612,3.208-3.918,5.297-3.918
	c1.028,0,2.338,0.402,3.93,1.205l4.228-11.805c-1.924-0.938-3.764-1.407-5.521-1.407c-2.487,0-4.776,0.703-6.864,2.109
	c-2.089,1.407-3.764,3.467-5.025,6.18v-6.882h-11.639v36.14l13.48,0.98V148.06z M356.029,171.57c4.275,0,8.24-0.875,11.927-2.537
	l-26.827-1.771C345.518,170.117,350.478,171.57,356.029,171.57z M136.425,110.785c2.354,0,4.376-0.863,6.068-2.588
	c1.691-1.726,2.536-3.81,2.536-6.255c0-2.479-0.853-4.589-2.561-6.33C140.76,93.871,138.712,93,136.324,93
	c-2.387,0-4.426,0.854-6.118,2.562c-1.69,1.708-2.537,3.768-2.537,6.18c0,2.512,0.854,4.646,2.562,6.404
	C131.939,109.904,134.003,110.785,136.425,110.785z M143.14,115.507H129.51v34.485l13.629,0.991V115.507z M304.647,170.164h13.628
	v-4.409l-13.628-0.899V170.164z M100.163,154.515c-2.818,2.998-6.367,4.497-10.644,4.497c-4.145,0-7.635-1.524-10.471-4.572
	c-1.284-1.38-2.262-2.941-2.964-4.665l-14.331-0.946c0.962,5.588,3.352,10.433,7.172,14.529c5.107,5.476,11.159,8.213,18.155,8.213
	c3.118,0,6.011-0.561,8.68-1.684c2.669-1.121,5.331-2.955,7.983-5.5v5.777h13.529v-17.672l-14.943-0.985
	C101.734,152.592,101.022,153.602,100.163,154.515z M311.561,110.785c2.354,0,4.378-0.863,6.069-2.588
	c1.69-1.726,2.536-3.81,2.536-6.255c0-2.479-0.854-4.589-2.562-6.33C315.897,93.871,313.85,93,311.462,93s-4.427,0.854-6.118,2.562
	s-2.537,3.768-2.537,6.18c0,2.512,0.854,4.646,2.562,6.404S309.141,110.785,311.561,110.785z M222.103,163.206
	c5.488,5.577,12.112,8.364,19.872,8.364c5.271,0,10.097-1.264,14.475-3.793c2.625-1.516,4.877-3.43,6.84-5.65l-44.498-2.936
	C219.758,160.589,220.85,161.934,222.103,163.206z M189.76,170.164h13.579v-11.992l-13.579-0.896V170.164z M280.274,170.164h13.579
	v-6.021l-13.579-0.896V170.164z M39.599,170.164h14.076v-21.867l-14.076-0.93V170.164z M1,170.164h14.127v-24.411L1,144.82V170.164z
	 M152.242,170.164h13.48v-14.475l-13.48-0.89V170.164z M129.51,170.164h13.629v-15.965l-13.629-0.9V170.164z M74.796,142.785
	c0-4.688,1.393-8.531,4.178-11.529s6.284-4.497,10.496-4.497c4.311,0,7.876,1.474,10.694,4.422
	c2.819,2.946,4.228,6.798,4.228,11.554c0,1.944-0.237,3.733-0.688,5.381l13.571,0.986v-33.595h-13.529v6.027
	c-2.42-2.478-5.057-4.337-7.909-5.575c-2.852-1.24-5.902-1.859-9.152-1.859c-7.063,0-13.065,2.696-18.006,8.088
	c-4.942,5.393-7.413,12.308-7.413,20.748c0,0.714,0.045,1.404,0.084,2.098l13.695,0.996
	C74.882,144.995,74.796,143.915,74.796,142.785z M231.554,154.39c-2.771-2.948-4.153-6.799-4.153-11.555
	c0-4.622,1.4-8.415,4.202-11.378c2.803-2.965,6.31-4.447,10.521-4.447c4.312,0,7.852,1.467,10.619,4.396
	c2.77,2.93,4.154,6.74,4.154,11.429s-1.41,8.524-4.229,11.505c-2.016,2.131-4.402,3.486-7.148,4.094l19.6,1.426
	c0.598-0.837,1.181-1.688,1.699-2.605c2.538-4.488,3.807-9.312,3.807-14.469c0-5.125-1.261-9.896-3.78-14.317
	c-2.521-4.422-6.026-7.921-10.521-10.499c-4.494-2.58-9.293-3.869-14.4-3.869c-7.062,0-13.312,2.479-18.752,7.435
	c-6.201,5.694-9.302,12.811-9.302,21.351c0,4.956,1.063,9.447,3.186,13.478l19.396,1.412
	C234.622,157.038,232.987,155.915,231.554,154.39z M293.854,94.407h-13.579v66.556l13.579,0.988V94.407z M203.339,127.161h8.605
	v-11.654h-8.605l0.05-6.833c0-1.574,0.265-2.612,0.796-3.113c0.729-0.672,1.89-1.006,3.481-1.006c1.261,0,2.868,0.284,4.824,0.854
	V94.96c-3.547-1.307-6.73-1.96-9.549-1.96c-3.913,0-6.939,0.879-9.078,2.638s-3.391,4.146-3.755,7.158
	c-0.199,1.307-0.315,5.544-0.348,12.711h-4.825v11.654h4.825v27.216l13.579,0.987V127.161z M380.874,157.254
	c2.537-4.488,3.806-9.312,3.806-14.469c0-5.125-1.26-9.896-3.78-14.317c-2.52-4.422-6.026-7.921-10.52-10.499
	c-4.494-2.58-9.293-3.869-14.4-3.869c-7.063,0-13.313,2.479-18.753,7.435c-6.201,5.694-9.301,12.811-9.301,21.351
	c0,7.972,2.744,14.745,8.232,20.321c0.693,0.704,1.404,1.363,2.134,1.979l32.548,2.368
	C375.05,165.041,378.406,161.619,380.874,157.254z M345.607,154.39c-2.769-2.948-4.152-6.799-4.152-11.555
	c0-4.622,1.401-8.415,4.203-11.378c2.803-2.965,6.309-4.447,10.521-4.447c4.311,0,7.851,1.467,10.619,4.396s4.153,6.74,4.153,11.429
	s-1.409,8.524-4.228,11.505c-2.819,2.98-6.351,4.471-10.595,4.471S348.378,157.338,345.607,154.39z M318.275,115.507h-13.628v47.229
	l13.628,0.992V115.507z M215.809,32.308c-7.918-23.905-21.96-29.076-31.147-31.624C175.474-1.864,163,3.531,163,3.531l1.039,0.919
	c12.654,9.46,6.879,27.183,20.843,41.823c8.716,9.137,26.054,3.734,26.054,3.734c8.572,11.779,21.38,11.826,21.38,11.826
	S223.727,56.213,215.809,32.308L215.809,32.308z M191.533,34.406c-6.722-13.339-10.009-27.053-21.288-30.051
	c0,0,16.732-0.449,26.89,20.233c0,0,4.93,11.69,12.25,23.231C209.385,47.82,198.256,47.745,191.533,34.406L191.533,34.406z"/>
</svg>
